<mxfile host="Electron" agent="Mozilla/5.0 (Windows NT 10.0; Win64; x64) AppleWebKit/537.36 (KHTML, like Gecko) draw.io/28.0.6 Chrome/138.0.7204.100 Electron/37.2.3 Safari/537.36" version="28.0.6">
  <diagram name="Page-1" id="1R4CQ2uZCOJgUPzyga9V">
    <mxGraphModel dx="1146" dy="700" grid="1" gridSize="10" guides="1" tooltips="1" connect="1" arrows="1" fold="1" page="1" pageScale="1" pageWidth="1100" pageHeight="850" math="0" shadow="0">
      <root>
        <mxCell id="0" />
        <mxCell id="1" parent="0" />
        <mxCell id="o19-tCJNhIn2AV2cN_U6-1" value="&lt;font style=&quot;&quot;&gt;&lt;b style=&quot;&quot;&gt;&lt;font style=&quot;font-size: 25px;&quot;&gt;Intergration Model&lt;/font&gt; &lt;/b&gt;&lt;/font&gt;(how tables are related)" style="text;html=1;align=center;verticalAlign=middle;whiteSpace=wrap;rounded=0;" parent="1" vertex="1">
          <mxGeometry x="80" y="50" width="360" height="60" as="geometry" />
        </mxCell>
        <mxCell id="o19-tCJNhIn2AV2cN_U6-2" value="crm_cust_info" style="swimlane;fontStyle=0;childLayout=stackLayout;horizontal=1;startSize=30;horizontalStack=0;resizeParent=1;resizeParentMax=0;resizeLast=0;collapsible=1;marginBottom=0;whiteSpace=wrap;html=1;rounded=1;fillColor=#d5e8d4;strokeColor=#82b366;fontSize=26;" parent="1" vertex="1">
          <mxGeometry x="430" y="440" width="200" height="110" as="geometry" />
        </mxCell>
        <mxCell id="o19-tCJNhIn2AV2cN_U6-3" value="cst_id" style="text;strokeColor=none;fillColor=none;align=left;verticalAlign=middle;spacingLeft=4;spacingRight=4;overflow=hidden;points=[[0,0.5],[1,0.5]];portConstraint=eastwest;rotatable=0;whiteSpace=wrap;html=1;fontSize=26;" parent="o19-tCJNhIn2AV2cN_U6-2" vertex="1">
          <mxGeometry y="30" width="200" height="40" as="geometry" />
        </mxCell>
        <mxCell id="o19-tCJNhIn2AV2cN_U6-20" value="cst_key" style="text;strokeColor=none;fillColor=none;align=left;verticalAlign=middle;spacingLeft=4;spacingRight=4;overflow=hidden;points=[[0,0.5],[1,0.5]];portConstraint=eastwest;rotatable=0;whiteSpace=wrap;html=1;fontSize=26;" parent="o19-tCJNhIn2AV2cN_U6-2" vertex="1">
          <mxGeometry y="70" width="200" height="40" as="geometry" />
        </mxCell>
        <mxCell id="o19-tCJNhIn2AV2cN_U6-6" value="&lt;font style=&quot;font-size: 15px;&quot;&gt;Customer Information&lt;/font&gt;" style="text;html=1;align=center;verticalAlign=middle;whiteSpace=wrap;rounded=0;" parent="1" vertex="1">
          <mxGeometry x="430" y="407.5" width="190" height="27.5" as="geometry" />
        </mxCell>
        <mxCell id="o19-tCJNhIn2AV2cN_U6-7" value="crm_prd_info" style="swimlane;fontStyle=0;childLayout=stackLayout;horizontal=1;startSize=30;horizontalStack=0;resizeParent=1;resizeParentMax=0;resizeLast=0;collapsible=1;marginBottom=0;whiteSpace=wrap;html=1;rounded=1;fillColor=#d5e8d4;strokeColor=#82b366;fontSize=26;" parent="1" vertex="1">
          <mxGeometry x="430" y="290" width="200" height="70" as="geometry" />
        </mxCell>
        <mxCell id="o19-tCJNhIn2AV2cN_U6-8" value="prd_key" style="text;strokeColor=none;fillColor=none;align=left;verticalAlign=middle;spacingLeft=4;spacingRight=4;overflow=hidden;points=[[0,0.5],[1,0.5]];portConstraint=eastwest;rotatable=0;whiteSpace=wrap;html=1;fontSize=26;" parent="o19-tCJNhIn2AV2cN_U6-7" vertex="1">
          <mxGeometry y="30" width="200" height="40" as="geometry" />
        </mxCell>
        <mxCell id="o19-tCJNhIn2AV2cN_U6-9" value="&lt;font style=&quot;font-size: 15px;&quot;&gt;Current &amp;amp; History Product Information&lt;/font&gt;" style="text;html=1;align=center;verticalAlign=middle;whiteSpace=wrap;rounded=0;" parent="1" vertex="1">
          <mxGeometry x="410" y="260" width="260" height="30" as="geometry" />
        </mxCell>
        <mxCell id="o19-tCJNhIn2AV2cN_U6-10" value="sales_details" style="swimlane;fontStyle=0;childLayout=stackLayout;horizontal=1;startSize=30;horizontalStack=0;resizeParent=1;resizeParentMax=0;resizeLast=0;collapsible=1;marginBottom=0;whiteSpace=wrap;html=1;rounded=1;fillColor=#d5e8d4;strokeColor=#82b366;fontSize=26;" parent="1" vertex="1">
          <mxGeometry x="80" y="330" width="202.5" height="110" as="geometry" />
        </mxCell>
        <mxCell id="o19-tCJNhIn2AV2cN_U6-11" value="prd_key" style="text;strokeColor=none;fillColor=none;align=left;verticalAlign=middle;spacingLeft=4;spacingRight=4;overflow=hidden;points=[[0,0.5],[1,0.5]];portConstraint=eastwest;rotatable=0;whiteSpace=wrap;html=1;fontSize=26;" parent="o19-tCJNhIn2AV2cN_U6-10" vertex="1">
          <mxGeometry y="30" width="202.5" height="40" as="geometry" />
        </mxCell>
        <mxCell id="o19-tCJNhIn2AV2cN_U6-13" value="cst_id" style="text;strokeColor=none;fillColor=none;align=left;verticalAlign=middle;spacingLeft=4;spacingRight=4;overflow=hidden;points=[[0,0.5],[1,0.5]];portConstraint=eastwest;rotatable=0;whiteSpace=wrap;html=1;fontSize=26;" parent="o19-tCJNhIn2AV2cN_U6-10" vertex="1">
          <mxGeometry y="70" width="202.5" height="40" as="geometry" />
        </mxCell>
        <mxCell id="o19-tCJNhIn2AV2cN_U6-12" value="&lt;font style=&quot;font-size: 15px;&quot;&gt;Transactional Records about&amp;nbsp;&lt;/font&gt;&lt;div&gt;&lt;font style=&quot;font-size: 15px;&quot;&gt;Sales &amp;amp; Orders&lt;/font&gt;&lt;/div&gt;" style="text;html=1;align=center;verticalAlign=middle;whiteSpace=wrap;rounded=0;" parent="1" vertex="1">
          <mxGeometry x="60" y="290" width="265" height="30" as="geometry" />
        </mxCell>
        <mxCell id="o19-tCJNhIn2AV2cN_U6-14" value="" style="edgeStyle=orthogonalEdgeStyle;rounded=0;orthogonalLoop=1;jettySize=auto;html=1;" parent="1" source="o19-tCJNhIn2AV2cN_U6-11" target="o19-tCJNhIn2AV2cN_U6-8" edge="1">
          <mxGeometry relative="1" as="geometry" />
        </mxCell>
        <mxCell id="o19-tCJNhIn2AV2cN_U6-16" style="edgeStyle=orthogonalEdgeStyle;rounded=0;orthogonalLoop=1;jettySize=auto;html=1;entryX=0;entryY=0.313;entryDx=0;entryDy=0;entryPerimeter=0;" parent="1" source="o19-tCJNhIn2AV2cN_U6-13" target="o19-tCJNhIn2AV2cN_U6-3" edge="1">
          <mxGeometry relative="1" as="geometry" />
        </mxCell>
        <mxCell id="o19-tCJNhIn2AV2cN_U6-17" value="erp_cust_az12" style="swimlane;fontStyle=0;childLayout=stackLayout;horizontal=1;startSize=30;horizontalStack=0;resizeParent=1;resizeParentMax=0;resizeLast=0;collapsible=1;marginBottom=0;whiteSpace=wrap;html=1;rounded=1;fillColor=#f8cecc;strokeColor=#b85450;fontSize=26;" parent="1" vertex="1">
          <mxGeometry x="830" y="430" width="200" height="70" as="geometry" />
        </mxCell>
        <mxCell id="o19-tCJNhIn2AV2cN_U6-18" value="cid" style="text;strokeColor=none;fillColor=none;align=left;verticalAlign=middle;spacingLeft=4;spacingRight=4;overflow=hidden;points=[[0,0.5],[1,0.5]];portConstraint=eastwest;rotatable=0;whiteSpace=wrap;html=1;fontSize=26;" parent="o19-tCJNhIn2AV2cN_U6-17" vertex="1">
          <mxGeometry y="30" width="200" height="40" as="geometry" />
        </mxCell>
        <mxCell id="o19-tCJNhIn2AV2cN_U6-19" value="&lt;font style=&quot;font-size: 15px;&quot;&gt;Extra Customer Information (Birthdate)&lt;/font&gt;" style="text;html=1;align=center;verticalAlign=middle;whiteSpace=wrap;rounded=0;" parent="1" vertex="1">
          <mxGeometry x="835" y="390" width="190" height="27.5" as="geometry" />
        </mxCell>
        <mxCell id="o19-tCJNhIn2AV2cN_U6-21" style="edgeStyle=orthogonalEdgeStyle;rounded=0;orthogonalLoop=1;jettySize=auto;html=1;" parent="1" source="o19-tCJNhIn2AV2cN_U6-20" target="o19-tCJNhIn2AV2cN_U6-18" edge="1">
          <mxGeometry relative="1" as="geometry" />
        </mxCell>
        <mxCell id="o19-tCJNhIn2AV2cN_U6-22" value="erp_loc_a101" style="swimlane;fontStyle=0;childLayout=stackLayout;horizontal=1;startSize=30;horizontalStack=0;resizeParent=1;resizeParentMax=0;resizeLast=0;collapsible=1;marginBottom=0;whiteSpace=wrap;html=1;rounded=1;fillColor=#f8cecc;strokeColor=#b85450;fontSize=26;" parent="1" vertex="1">
          <mxGeometry x="830" y="568.75" width="200" height="70" as="geometry" />
        </mxCell>
        <mxCell id="o19-tCJNhIn2AV2cN_U6-23" value="cid" style="text;strokeColor=none;fillColor=none;align=left;verticalAlign=middle;spacingLeft=4;spacingRight=4;overflow=hidden;points=[[0,0.5],[1,0.5]];portConstraint=eastwest;rotatable=0;whiteSpace=wrap;html=1;fontSize=26;" parent="o19-tCJNhIn2AV2cN_U6-22" vertex="1">
          <mxGeometry y="30" width="200" height="40" as="geometry" />
        </mxCell>
        <mxCell id="o19-tCJNhIn2AV2cN_U6-24" value="&lt;font style=&quot;font-size: 15px;&quot;&gt;Extra Customer Information (Country)&lt;/font&gt;" style="text;html=1;align=center;verticalAlign=middle;whiteSpace=wrap;rounded=0;" parent="1" vertex="1">
          <mxGeometry x="835" y="528.75" width="190" height="27.5" as="geometry" />
        </mxCell>
        <mxCell id="o19-tCJNhIn2AV2cN_U6-25" style="edgeStyle=orthogonalEdgeStyle;rounded=0;orthogonalLoop=1;jettySize=auto;html=1;entryX=0;entryY=0.5;entryDx=0;entryDy=0;" parent="1" source="o19-tCJNhIn2AV2cN_U6-20" target="o19-tCJNhIn2AV2cN_U6-23" edge="1">
          <mxGeometry relative="1" as="geometry" />
        </mxCell>
        <mxCell id="o19-tCJNhIn2AV2cN_U6-26" value="erp_px_cat_g1v2" style="swimlane;fontStyle=0;childLayout=stackLayout;horizontal=1;startSize=30;horizontalStack=0;resizeParent=1;resizeParentMax=0;resizeLast=0;collapsible=1;marginBottom=0;whiteSpace=wrap;html=1;rounded=1;fillColor=#f8cecc;strokeColor=#b85450;fontSize=26;" parent="1" vertex="1">
          <mxGeometry x="835" y="290" width="195" height="70" as="geometry" />
        </mxCell>
        <mxCell id="o19-tCJNhIn2AV2cN_U6-27" value="id" style="text;strokeColor=none;fillColor=none;align=left;verticalAlign=middle;spacingLeft=4;spacingRight=4;overflow=hidden;points=[[0,0.5],[1,0.5]];portConstraint=eastwest;rotatable=0;whiteSpace=wrap;html=1;fontSize=26;" parent="o19-tCJNhIn2AV2cN_U6-26" vertex="1">
          <mxGeometry y="30" width="195" height="40" as="geometry" />
        </mxCell>
        <mxCell id="o19-tCJNhIn2AV2cN_U6-28" value="&lt;font style=&quot;font-size: 15px;&quot;&gt;Extra Product Information&amp;nbsp;&lt;/font&gt;" style="text;html=1;align=center;verticalAlign=middle;whiteSpace=wrap;rounded=0;" parent="1" vertex="1">
          <mxGeometry x="845" y="262.5" width="190" height="27.5" as="geometry" />
        </mxCell>
        <mxCell id="o19-tCJNhIn2AV2cN_U6-31" style="edgeStyle=orthogonalEdgeStyle;rounded=0;orthogonalLoop=1;jettySize=auto;html=1;entryX=0;entryY=0.5;entryDx=0;entryDy=0;" parent="1" source="o19-tCJNhIn2AV2cN_U6-8" target="o19-tCJNhIn2AV2cN_U6-27" edge="1">
          <mxGeometry relative="1" as="geometry" />
        </mxCell>
        <mxCell id="o19-tCJNhIn2AV2cN_U6-32" value="" style="rounded=1;whiteSpace=wrap;html=1;fillColor=none;dashed=1;" parent="1" vertex="1">
          <mxGeometry x="40" y="206.25" width="640" height="430" as="geometry" />
        </mxCell>
        <mxCell id="o19-tCJNhIn2AV2cN_U6-33" value="&lt;font style=&quot;font-size: 33px;&quot;&gt;CRM&lt;/font&gt;" style="rounded=1;whiteSpace=wrap;html=1;fillColor=#d5e8d4;strokeColor=#82b366;fontStyle=1" parent="1" vertex="1">
          <mxGeometry x="290" y="180" width="120" height="60" as="geometry" />
        </mxCell>
        <mxCell id="o19-tCJNhIn2AV2cN_U6-36" value="" style="rounded=1;whiteSpace=wrap;html=1;fillColor=none;dashed=1;" parent="1" vertex="1">
          <mxGeometry x="770" y="220" width="310" height="430" as="geometry" />
        </mxCell>
        <mxCell id="o19-tCJNhIn2AV2cN_U6-37" value="&lt;font style=&quot;font-size: 33px;&quot;&gt;&lt;b&gt;ERP&lt;/b&gt;&lt;/font&gt;" style="rounded=1;whiteSpace=wrap;html=1;fillColor=#f8cecc;strokeColor=#b85450;" parent="1" vertex="1">
          <mxGeometry x="870" y="180" width="120" height="60" as="geometry" />
        </mxCell>
        <mxCell id="wSPe80FTj7OVG3afOyH0-1" value="&lt;font style=&quot;font-size: 18px;&quot;&gt;&lt;b style=&quot;&quot;&gt;PRODUCT&lt;/b&gt;&lt;/font&gt;" style="text;html=1;strokeColor=#d6b656;fillColor=#fff2cc;align=center;verticalAlign=middle;whiteSpace=wrap;overflow=hidden;" vertex="1" parent="1">
          <mxGeometry x="440" y="360" width="180" height="30" as="geometry" />
        </mxCell>
        <mxCell id="wSPe80FTj7OVG3afOyH0-2" value="&lt;font style=&quot;font-size: 18px;&quot;&gt;&lt;b style=&quot;&quot;&gt;PRODUCT&lt;/b&gt;&lt;/font&gt;" style="text;html=1;strokeColor=#d6b656;fillColor=#fff2cc;align=center;verticalAlign=middle;whiteSpace=wrap;overflow=hidden;" vertex="1" parent="1">
          <mxGeometry x="842.5" y="350" width="182.5" height="30" as="geometry" />
        </mxCell>
        <mxCell id="wSPe80FTj7OVG3afOyH0-3" value="&lt;font style=&quot;font-size: 18px;&quot;&gt;&lt;b style=&quot;&quot;&gt;CUSTOMER&lt;/b&gt;&lt;/font&gt;" style="text;html=1;strokeColor=#6c8ebf;fillColor=#dae8fc;align=center;verticalAlign=middle;whiteSpace=wrap;overflow=hidden;" vertex="1" parent="1">
          <mxGeometry x="840" y="490" width="180" height="30" as="geometry" />
        </mxCell>
        <mxCell id="wSPe80FTj7OVG3afOyH0-4" value="&lt;font style=&quot;font-size: 18px;&quot;&gt;&lt;b style=&quot;&quot;&gt;CUSTOMER&lt;/b&gt;&lt;/font&gt;" style="text;html=1;strokeColor=#6c8ebf;fillColor=#dae8fc;align=center;verticalAlign=middle;whiteSpace=wrap;overflow=hidden;" vertex="1" parent="1">
          <mxGeometry x="430" y="550" width="190" height="30" as="geometry" />
        </mxCell>
        <mxCell id="wSPe80FTj7OVG3afOyH0-5" value="&lt;font style=&quot;font-size: 18px;&quot;&gt;&lt;b style=&quot;&quot;&gt;CUSTOMER&lt;/b&gt;&lt;/font&gt;" style="text;html=1;strokeColor=#6c8ebf;fillColor=#dae8fc;align=center;verticalAlign=middle;whiteSpace=wrap;overflow=hidden;" vertex="1" parent="1">
          <mxGeometry x="840" y="638.75" width="190" height="30" as="geometry" />
        </mxCell>
        <mxCell id="wSPe80FTj7OVG3afOyH0-6" value="&lt;font style=&quot;font-size: 18px;&quot;&gt;&lt;b style=&quot;&quot;&gt;SALES&lt;/b&gt;&lt;/font&gt;" style="text;html=1;strokeColor=#9673a6;fillColor=#e1d5e7;align=center;verticalAlign=middle;whiteSpace=wrap;overflow=hidden;" vertex="1" parent="1">
          <mxGeometry x="90" y="440" width="180" height="30" as="geometry" />
        </mxCell>
      </root>
    </mxGraphModel>
  </diagram>
</mxfile>
